<svg 
 xmlns="http://www.w3.org/2000/svg"
 xmlns:xlink="http://www.w3.org/1999/xlink"
 width="408px" height="93px">
<path fill-rule="evenodd"  stroke="rgb(0, 0, 0)" stroke-width="0px" stroke-linecap="butt" stroke-linejoin="miter" fill="rgb(255, 255, 255)"
 d="M334.573,71.618 C331.633,76.745 327.550,80.755 322.326,83.648 C317.101,86.540 311.63,87.987 304.209,87.987 C297.313,87.987 291.264,86.530 286.60,83.618 C280.857,80.706 276.806,76.685 273.908,71.558 C271.10,66.431 269.562,60.536 269.562,53.872 C269.562,47.129 271.42,41.194 274.4,36.66 C276.964,30.939 281.47,26.939 286.251,24.66 C291.454,21.193 297.440,19.757 304.209,19.757 C311.104,19.757 317.164,21.214 322.390,24.126 C327.614,27.39 331.686,31.59 334.605,36.186 C337.524,41.313 338.984,47.209 338.984,53.872 C338.984,60.575 337.513,66.491 334.573,71.618 ZM316.552,40.106 C313.780,36.675 309.666,34.959 304.209,34.959 C300.443,34.959 297.356,35.757 294.944,37.353 C292.533,38.949 290.745,41.164 289.582,43.996 C288.418,46.830 287.837,50.122 287.837,53.872 C287.837,59.658 289.222,64.256 291.994,67.668 C294.764,71.79 298.836,72.785 304.209,72.785 C309.751,72.785 313.886,71.19 316.615,67.488 C319.344,63.957 320.708,59.418 320.708,53.872 C320.708,48.126 319.322,43.538 316.552,40.106 ZM254.681,36.186 C252.163,36.365 249.890,36.914 247.859,37.832 C245.829,38.710 244.115,39.877 242.719,41.333 C241.323,42.790 240.265,44.505 239.546,46.480 C238.826,48.455 238.468,50.680 238.468,53.154 L238.468,86.191 L221.80,86.191 L221.80,21.552 L236.310,21.552 L236.310,31.966 C236.879,31.4 237.510,30.85 238.214,29.213 C239.694,27.378 241.513,25.861 243.671,24.664 C245.321,23.707 247.119,22.959 249.65,22.420 C251.10,21.881 253.20,21.543 255.93,21.403 C257.166,21.263 259.239,21.313 261.312,21.552 L261.312,36.754 C259.408,36.196 257.197,36.6 254.681,36.186 ZM188.209,78.242 C185.486,81.270 182.600,83.558 179.548,85.84 C175.677,87.19 170.780,87.987 164.857,87.987 C159.949,87.987 155.793,87.99 152.388,85.324 C148.982,83.549 146.401,81.174 144.646,78.201 C142.890,75.229 142.13,71.947 142.13,68.356 C142.13,65.363 142.499,62.631 143.472,60.156 C144.445,57.683 146.20,55.498 148.200,53.603 C150.378,51.708 153.308,50.122 156.989,48.844 C159.527,47.967 162.551,47.189 166.63,46.510 C169.574,45.832 173.551,45.184 177.993,44.565 C180.599,44.202 183.376,43.813 186.287,43.402 C185.958,40.743 185.39,38.701 183.514,37.293 C181.567,35.498 178.310,34.600 173.741,34.600 C171.203,34.600 168.559,35.179 165.809,36.335 C163.59,37.493 161.134,39.548 160.35,42.500 L144.424,37.832 C146.158,32.485 149.415,28.136 154.196,24.784 C158.977,21.432 165.492,19.757 173.741,19.757 C179.791,19.757 185.164,20.635 189.859,22.390 C194.555,24.146 198.109,27.178 200.520,31.487 C201.874,33.882 202.678,36.276 202.932,38.670 C203.185,41.64 203.312,43.737 203.312,46.690 L203.312,86.191 L188.209,86.191 L188.209,78.242 ZM178.818,57.792 C175.645,58.331 173.85,58.820 171.140,59.258 C169.193,59.698 167.480,60.177 165.999,60.695 C164.307,61.334 162.943,62.22 161.906,62.760 C160.869,63.499 160.108,64.307 159.622,65.184 C159.135,66.62 158.892,67.39 158.892,68.116 C158.892,69.593 159.283,70.860 160.66,71.917 C160.849,72.975 161.959,73.783 163.398,74.341 C164.835,74.900 166.549,75.179 168.538,75.179 C171.711,75.179 174.386,74.650 176.565,73.593 C178.743,72.536 180.478,71.329 181.769,69.972 C183.59,68.616 183.936,67.479 184.402,66.560 C185.290,64.805 185.808,62.760 185.957,60.426 C186.47,59.3 186.109,57.727 186.144,56.594 C183.319,57.44 180.847,57.448 178.818,57.792 ZM115.741,86.191 L92.8,55.69 L92.8,86.191 L74.367,86.191 L74.494,0.6 L92.8,0.6 L92.8,52.675 L115.234,21.552 L136.555,21.552 L111.807,53.872 L138.205,86.191 L115.741,86.191 ZM25.791,44.415 C28.393,45.214 32.359,46.251 37.689,47.528 C42.893,48.805 47.70,50.291 50.222,51.987 C53.373,53.683 55.668,55.718 57.107,58.91 C58.545,60.466 59.265,63.328 59.265,66.680 C59.265,73.304 56.726,78.511 51.650,82.301 C46.573,86.92 39.550,87.987 30.582,87.987 C21.952,87.987 14.981,86.142 9.673,82.451 C4.363,78.761 1.138,73.543 0.3,66.800 L17.637,64.286 C18.356,67.319 19.953,69.693 22.428,71.408 C24.903,73.124 28.44,73.982 31.851,73.982 C34.981,73.982 37.393,73.413 39.85,72.276 C40.777,71.139 41.623,69.553 41.623,67.518 C41.623,66.241 41.284,65.214 40.608,64.436 C39.931,63.658 38.419,62.890 36.71,62.131 C33.723,61.374 30.74,60.376 25.125,59.139 C19.540,57.783 15.77,56.266 11.735,54.590 C8.393,52.914 5.981,50.909 4.501,48.575 C3.20,46.241 2.280,43.418 2.280,40.106 C2.280,35.957 3.400,32.355 5.643,29.303 C7.885,26.250 11.47,23.897 15.130,22.240 C19.212,20.585 24.24,19.757 29.567,19.757 C34.939,19.757 39.698,20.535 43.844,22.91 C47.990,23.647 51.342,25.861 53.902,28.734 C56.462,31.607 58.37,34.999 58.630,38.909 L40.989,41.902 C40.692,39.508 39.593,37.613 37.689,36.216 C35.785,34.820 33.204,34.1 29.947,33.762 C26.774,33.563 24.225,33.962 22.301,34.959 C20.375,35.957 19.413,37.393 19.413,39.268 C19.413,40.386 19.826,41.324 20.651,42.81 C21.476,42.840 23.189,43.618 25.791,44.415 Z"/>
<path fill-rule="evenodd"  stroke="rgb(0, 0, 0)" stroke-width="0px" stroke-linecap="butt" stroke-linejoin="miter" fill="rgb(88, 157, 246)"
 d="M362.500,75.999 L399.499,75.999 C404.194,75.999 408.0,79.805 408.0,84.500 C408.0,89.194 404.194,93.0 399.499,93.0 L362.500,93.0 C357.805,93.0 353.999,89.194 353.999,84.500 C353.999,79.805 357.805,75.999 362.500,75.999 Z"/>
</svg>