<svg 
 xmlns="http://www.w3.org/2000/svg"
 xmlns:xlink="http://www.w3.org/1999/xlink"
 width="491px" height="127px">
<defs>
<linearGradient id="PSgrad_0" x1="0%" x2="0%" y1="100%" y2="0%">
  <stop offset="0%" stop-color="rgb(129,0,70)" stop-opacity="1" />
  <stop offset="16%" stop-color="rgb(168,0,40)" stop-opacity="1" />
  <stop offset="32%" stop-color="rgb(232,0,44)" stop-opacity="1" />
  <stop offset="48%" stop-color="rgb(255,0,0)" stop-opacity="1" />
  <stop offset="64%" stop-color="rgb(255,66,0)" stop-opacity="1" />
  <stop offset="81%" stop-color="rgb(255,84,0)" stop-opacity="1" />
  <stop offset="99%" stop-color="rgb(255,90,0)" stop-opacity="1" />
</linearGradient>

</defs>
<path fill-rule="evenodd"  stroke="rgb(0, 0, 0)" stroke-width="0px" stroke-linecap="butt" stroke-linejoin="miter" fill="rgb(255, 255, 255)"
 d="M486.573,81.618 C483.632,86.745 479.550,90.755 474.326,93.648 C469.101,96.540 463.62,97.987 456.209,97.987 C449.313,97.987 443.264,96.530 438.60,93.618 C432.857,90.706 428.806,86.685 425.908,81.558 C423.10,76.431 421.561,70.536 421.561,63.872 C421.561,57.129 423.42,51.194 426.3,46.66 C428.964,40.939 433.47,36.939 438.251,34.66 C443.454,31.193 449.440,29.757 456.209,29.757 C463.104,29.757 469.164,31.214 474.390,34.126 C479.614,37.39 483.686,41.59 486.605,46.186 C489.524,51.313 490.984,57.209 490.984,63.872 C490.984,70.575 489.513,76.491 486.573,81.618 ZM468.551,50.106 C465.780,46.675 461.666,44.959 456.209,44.959 C452.443,44.959 449.356,45.757 446.944,47.353 C444.533,48.949 442.745,51.164 441.582,53.996 C440.418,56.830 439.837,60.122 439.837,63.872 C439.837,69.658 441.222,74.256 443.994,77.667 C446.764,81.79 450.836,82.785 456.209,82.785 C461.751,82.785 465.886,81.19 468.615,77.488 C471.344,73.957 472.708,69.418 472.708,63.872 C472.708,58.126 471.322,53.538 468.551,50.106 ZM406.681,46.186 C404.163,46.365 401.890,46.914 399.859,47.832 C397.828,48.710 396.115,49.877 394.719,51.333 C393.323,52.790 392.265,54.505 391.546,56.480 C390.826,58.455 390.467,60.680 390.467,63.154 L390.467,96.191 L373.80,96.191 L373.80,31.552 L388.310,31.552 L388.310,41.966 C388.879,41.4 389.510,40.85 390.214,39.213 C391.694,37.378 393.513,35.861 395.671,34.664 C397.321,33.707 399.118,32.959 401.65,32.420 C403.10,31.881 405.20,31.543 407.93,31.402 C409.166,31.263 411.239,31.313 413.312,31.552 L413.312,46.754 C411.408,46.196 409.197,46.6 406.681,46.186 ZM340.209,88.242 C337.486,91.269 334.600,93.558 331.548,95.84 C327.677,97.19 322.780,97.987 316.857,97.987 C311.949,97.987 307.793,97.99 304.388,95.324 C300.982,93.549 298.401,91.174 296.646,88.201 C294.890,85.229 294.13,81.947 294.13,78.356 C294.13,75.363 294.498,72.631 295.472,70.156 C296.445,67.683 298.20,65.498 300.200,63.602 C302.378,61.708 305.308,60.122 308.988,58.844 C311.527,57.967 314.551,57.189 318.63,56.510 C321.574,55.832 325.551,55.184 329.993,54.565 C332.599,54.202 335.376,53.813 338.287,53.402 C337.958,50.743 337.39,48.701 335.514,47.293 C333.567,45.497 330.310,44.600 325.741,44.600 C323.203,44.600 320.559,45.179 317.809,46.335 C315.59,47.493 313.134,49.548 312.34,52.500 L296.424,47.832 C298.158,42.485 301.415,38.136 306.196,34.784 C310.976,31.432 317.492,29.757 325.741,29.757 C331.790,29.757 337.163,30.635 341.859,32.390 C346.555,34.146 350.109,37.178 352.520,41.487 C353.874,43.881 354.678,46.275 354.932,48.670 C355.185,51.64 355.312,53.737 355.312,56.690 L355.312,96.191 L340.209,96.191 L340.209,88.242 ZM330.818,67.792 C327.645,68.331 325.85,68.820 323.139,69.258 C321.193,69.698 319.480,70.177 317.999,70.695 C316.307,71.334 314.943,72.22 313.906,72.760 C312.869,73.498 312.108,74.306 311.622,75.184 C311.135,76.62 310.892,77.39 310.892,78.116 C310.892,79.593 311.283,80.860 312.66,81.917 C312.848,82.975 313.959,83.783 315.398,84.341 C316.835,84.900 318.549,85.179 320.538,85.179 C323.711,85.179 326.386,84.650 328.565,83.593 C330.743,82.536 332.478,81.329 333.769,79.972 C335.58,78.616 335.936,77.479 336.402,76.560 C337.290,74.805 337.808,72.760 337.957,70.425 C338.47,69.3 338.109,67.727 338.144,66.594 C335.319,67.44 332.847,67.448 330.818,67.792 ZM267.741,96.191 L244.8,65.69 L244.8,96.191 L226.367,96.191 L226.494,10.6 L244.8,10.6 L244.8,62.675 L267.234,31.552 L288.555,31.552 L263.807,63.872 L290.205,96.191 L267.741,96.191 ZM177.791,54.415 C180.393,55.214 184.359,56.251 189.689,57.528 C194.893,58.805 199.70,60.291 202.222,61.986 C205.373,63.683 207.668,65.718 209.107,68.91 C210.545,70.466 211.265,73.328 211.265,76.680 C211.265,83.304 208.726,88.511 203.650,92.301 C198.573,96.92 191.550,97.987 182.582,97.987 C173.952,97.987 166.981,96.142 161.673,92.451 C156.363,88.761 153.138,83.543 151.996,76.800 L169.637,74.286 C170.355,77.319 171.953,79.693 174.428,81.408 C176.902,83.124 180.44,83.982 183.851,83.982 C186.981,83.982 189.393,83.413 191.85,82.276 C192.777,81.139 193.623,79.553 193.623,77.518 C193.623,76.241 193.284,75.214 192.608,74.436 C191.931,73.657 190.419,72.890 188.71,72.131 C185.723,71.374 182.74,70.376 177.125,69.139 C171.540,67.783 167.76,66.266 163.735,64.590 C160.393,62.914 157.981,60.909 156.501,58.575 C155.20,56.241 154.280,53.418 154.280,50.106 C154.280,45.957 155.400,42.355 157.643,39.303 C159.885,36.250 163.47,33.897 167.130,32.240 C171.212,30.585 176.24,29.757 181.567,29.757 C186.939,29.757 191.698,30.535 195.844,32.91 C199.990,33.647 203.342,35.861 205.902,38.734 C208.461,41.607 210.37,44.999 210.630,48.909 L192.989,51.902 C192.692,49.507 191.593,47.613 189.689,46.216 C187.785,44.819 185.204,44.1 181.947,43.762 C178.774,43.563 176.225,43.962 174.301,44.959 C172.375,45.957 171.413,47.393 171.413,49.268 C171.413,50.386 171.826,51.324 172.651,52.81 C173.476,52.840 175.189,53.618 177.791,54.415 Z"/>
<path fill-rule="evenodd"  fill="url(#PSgrad_0)"
 d="M63.500,126.999 C28.429,126.999 0.0,98.570 0.0,63.500 C0.0,59.33 0.466,54.677 1.343,50.471 C5.174,62.937 16.778,72.0 30.500,72.0 C47.344,72.0 60.999,58.344 60.999,41.500 C60.999,24.655 47.344,11.0 30.500,11.0 C29.513,11.0 28.539,11.51 27.577,11.142 C37.795,4.118 50.164,0.0 63.500,0.0 C98.570,0.0 126.999,28.429 126.999,63.500 C126.999,98.570 98.570,126.999 63.500,126.999 Z"/>
</svg>