<svg
        xmlns="http://www.w3.org/2000/svg"
        xmlns:xlink="http://www.w3.org/1999/xlink"
        width="512px" height="512px">
    <path fill-rule="evenodd"  stroke="rgb(8, 145, 178)" stroke-width="0px" stroke-linecap="butt" stroke-linejoin="miter" fill="rgb(49, 51, 53)"
          d="M130.0,0.0 L381.999,0.0 C453.796,0.0 511.999,58.203 511.999,130.0 L511.999,381.999 C511.999,453.796 453.796,511.999 381.999,511.999 L130.0,511.999 C58.203,511.999 0.0,453.796 0.0,381.999 L0.0,130.0 C0.0,58.203 58.203,0.0 130.0,0.0 Z"/>
    <path fill-rule="evenodd"  fill="rgb(88, 157, 246)"
          d="M361.503,395.241 C385.827,376.743 397.988,351.330 397.988,319.2 C397.988,302.644 394.539,288.673 387.651,277.85 C380.758,265.501 369.760,255.569 354.662,247.290 C339.559,239.15 319.545,231.763 294.613,225.528 C269.73,219.298 250.70,214.236 237.605,210.339 C225.139,206.445 216.929,202.648 212.977,198.947 C209.24,195.250 207.48,190.672 207.48,185.218 C207.48,176.66 211.656,169.56 220.882,164.186 C230.103,159.321 242.317,157.372 257.519,158.344 C273.126,159.512 285.492,163.506 294.613,170.320 C303.734,177.139 309.3,186.386 310.423,198.70 L394.948,183.465 C392.107,164.382 384.558,147.828 372.297,133.807 C360.30,119.786 343.968,108.978 324.105,101.383 C304.238,93.789 281.435,89.991 255.695,89.991 C229.139,89.991 206.84,94.35 186.525,102.114 C166.961,110.197 151.811,121.685 141.70,136.582 C130.324,151.479 124.956,169.56 124.956,189.307 C124.956,205.473 128.500,219.248 135.597,230.640 C142.690,242.32 154.244,251.818 170.258,259.997 C186.268,268.176 207.656,275.579 234.412,282.197 C258.128,288.235 275.610,293.105 286.860,296.802 C298.110,300.503 305.354,304.250 308.599,308.48 C311.839,311.845 313.464,316.861 313.464,323.91 C313.464,333.23 309.407,340.764 301.302,346.314 C293.193,351.864 281.639,354.639 266.641,354.639 C248.398,354.639 233.348,350.453 221.490,342.78 C209.632,333.707 201.979,322.119 198.535,307.318 L114.10,319.586 C119.483,352.498 134.937,377.961 160.377,395.972 C185.812,413.986 219.210,422.991 260.560,422.991 C303.530,422.991 337.179,413.744 361.503,395.241 Z"/>
</svg>