<svg viewBox="0 0 24 24" xmlns="http://www.w3.org/2000/svg">
  <circle cx="12" cy="12" r="12" fill="#4D6BFE"/>
  <g transform="translate(4.5 5.5)" fill="#fff">
    <path d="M7.5 0C4.5 0 2.2 1.6 1 3.8c-.3.5-.5 1.1-.7 1.7C0 6.5 0 7.5.2 8.4c.3 1 .8 1.8 1.5 2.5.6.6 1.4 1 2.2 1.2.5.1 1 .1 1.5 0 .4-.1.8-.3 1.1-.6.3-.3.4-.6.4-1s-.2-.7-.5-.9c-.3-.2-.6-.2-.9-.1-.2.1-.4.1-.6.1-.4 0-.9-.2-1.3-.5-.5-.5-.8-1.1-.8-1.8 0-.5.1-1 .4-1.5C3.8 4.5 5 3.2 7 2.8c1-.2 2-.1 2.8.3.9.4 1.5 1 2 1.8.4.7.6 1.5.6 2.3 0 1-.3 2-.9 2.8-.5.7-1.2 1.2-2 1.5-.5.2-1 .3-1.5.3h-.5l1.8 1.2h.2c.8 0 1.6-.2 2.3-.5 1.1-.5 2-1.3 2.7-2.3.7-1.1 1-2.4 1-3.7 0-1.2-.3-2.3-.9-3.3-.6-1-1.5-1.8-2.6-2.4C10.5.2 9 0 7.5 0z"/>
  </g>
</svg>
